<svg width="24" xmlns="http://www.w3.org/2000/svg" height="24" id="screenshot-2aec7a0f-8228-80ea-8008-3fca61184585" viewBox="0 0 24 24" xmlns:xlink="http://www.w3.org/1999/xlink" fill="none" version="1.1"><g id="shape-2aec7a0f-8228-80ea-8008-3fca61184585"><g class="frame-container-wrapper"><g class="frame-container-blur"><g class="frame-container-shadows"><g fill="none"><g class="fills" id="fills-2aec7a0f-8228-80ea-8008-3fca61184585"><rect rx="0" ry="0" x="0" y="0" width="24" height="24" transform="matrix(1.000000, 0.000000, 0.000000, 1.000000, 0.000000, 0.000000)" class="frame-background"/></g><g class="frame-children"><g id="shape-2aec7a0f-8228-80ea-8008-3fca5b9d6fff" width="1.5em" height="1.5em" rx="0" ry="0" style="fill: rgb(0, 0, 0);"><g id="shape-2aec7a0f-8228-80ea-8008-3fca5b9eefd4" style="display: none;"><g class="fills" id="fills-2aec7a0f-8228-80ea-8008-3fca5b9eefd4"><rect width="24" height="24" x="0" transform="matrix(1.000000, 0.000000, 0.000000, 1.000000, 0.000000, 0.000000)" style="fill: none;" ry="0" fill="none" rx="0" y="0"/></g></g><g id="shape-2aec7a0f-8228-80ea-8008-3fca5b9f2518"><g class="fills" id="fills-2aec7a0f-8228-80ea-8008-3fca5b9f2518"><path d="M0,0L24,0L24,24L0,24L0,0" fill="none" style="fill: none;"/></g></g><g id="shape-2aec7a0f-8228-80ea-8008-3fca5b9f6642"><g class="fills" id="fills-2aec7a0f-8228-80ea-8008-3fca5b9f6642"><path d="M15,19C16.199951171875,15.322021484375,17.52587890625,13.9949951171875,21,13C17.52587890625,12.0050048828125,16.199951171875,10.677978515625,15,7C13.800048828125,10.677978515625,12.47412109375,12.0050048828125,9,13C12.47412109375,13.9949951171875,13.800048828125,15.322021484375,15,19L15,19M7,10C7.60009765625,8.1600341796875,8.262939453125,7.4969482421875,10,7C8.262939453125,6.5030517578125,7.60009765625,5.8399658203125,7,4C6.39990234375,5.8399658203125,5.737060546875,6.5030517578125,4,7C5.737060546875,7.4969482421875,6.39990234375,8.1600341796875,7,10L7,10M8.5,20C8.800048828125,19.0799560546875,9.131103515625,18.7490234375,10,18.5C9.131103515625,18.2509765625,8.800048828125,17.9200439453125,8.5,17C8.199951171875,17.9200439453125,7.868896484375,18.2509765625,7,18.5C7.868896484375,18.7490234375,8.199951171875,19.0799560546875,8.5,20L8.5,20" fill="none" stroke-linejoin="round" style="fill: none;"/></g><g fill="none" stroke-linejoin="round" id="strokes-bf761871-e2c2-80da-8008-4bdd53f2010f-2aec7a0f-8228-80ea-8008-3fca5b9f6642" class="strokes"><g class="inner-stroke-shape"><defs><clipPath id="inner-stroke-render-5-2aec7a0f-8228-80ea-8008-3fca5b9f6642-0"><use href="#stroke-shape-render-5-2aec7a0f-8228-80ea-8008-3fca5b9f6642-0"/></clipPath><path d="M15,19C16.199951171875,15.322021484375,17.52587890625,13.9949951171875,21,13C17.52587890625,12.0050048828125,16.199951171875,10.677978515625,15,7C13.800048828125,10.677978515625,12.47412109375,12.0050048828125,9,13C12.47412109375,13.9949951171875,13.800048828125,15.322021484375,15,19L15,19M7,10C7.60009765625,8.1600341796875,8.262939453125,7.4969482421875,10,7C8.262939453125,6.5030517578125,7.60009765625,5.8399658203125,7,4C6.39990234375,5.8399658203125,5.737060546875,6.5030517578125,4,7C5.737060546875,7.4969482421875,6.39990234375,8.1600341796875,7,10L7,10M8.5,20C8.800048828125,19.0799560546875,9.131103515625,18.7490234375,10,18.5C9.131103515625,18.2509765625,8.800048828125,17.9200439453125,8.5,17C8.199951171875,17.9200439453125,7.868896484375,18.2509765625,7,18.5C7.868896484375,18.7490234375,8.199951171875,19.0799560546875,8.5,20L8.5,20" id="stroke-shape-render-5-2aec7a0f-8228-80ea-8008-3fca5b9f6642-0" style="fill: none; stroke-width: 4; stroke: rgb(232, 93, 4); stroke-opacity: 1;"/></defs><use href="#stroke-shape-render-5-2aec7a0f-8228-80ea-8008-3fca5b9f6642-0" clip-path="url('#inner-stroke-render-5-2aec7a0f-8228-80ea-8008-3fca5b9f6642-0')"/></g></g></g></g></g></g></g></g></g></g></svg>